<svg id="Capa_2" data-name="Capa 2" xmlns="http://www.w3.org/2000/svg" viewBox="328.33 666.48 1409.1 615.02">
  <defs>
    <style>
      .cls-1, .cls-2 {
        fill: #fff;
      }

      .cls-2, .cls-3 {
        font-family: Gordita-Black, Gordita;
        font-size: 151.57px;
        font-weight: 800;
      }

      .cls-4 {
        letter-spacing: -.03em;
      }
    </style>
  </defs>
  <g>
    <g>
      <g>
        <path d="m328.34,829.85v451.65h130.16v-126.25h130.16l130.16-130.16v-195.24h-390.48Zm260.32,195.24h-130.16v-65.08h130.16v65.08Z"/>
        <path d="m827.26,666.5h-292.65l.42,145.94,145.91.39h146.32l-.36,283.14h-152.89l-77.83,79.22v76.45l377.42.18v-438.99l-146.34-146.33Z"/>
      </g>
      <g>
        <path class="cls-1" d="m328.34,829.85v451.65h130.16v-126.25h130.16l130.16-130.16v-195.24h-390.48Zm260.32,195.24h-130.16v-65.08h130.16v65.08Z"/>
        <path class="cls-1" d="m827.26,666.5h-292.65l.42,145.94,145.91.39h146.32l-.36,283.14h-152.89l-77.83,79.22v76.45l377.42.18v-438.99l-146.34-146.33Z"/>
      </g>
    </g>
    <g>
      <rect x="1546.97" y="902.5" width="14" height="37"/>
      <rect x="1573.97" y="886.5" width="14" height="69"/>
      <rect x="1600.97" y="870.5" width="14" height="101"/>
      <rect x="1626.97" y="861.5" width="14" height="119"/>
      <rect x="1652.97" y="870.5" width="14" height="101"/>
      <rect x="1678.97" y="886.5" width="14" height="69"/>
      <rect x="1704.97" y="902.5" width="14" height="37"/>
    </g>
    <text class="cls-3" transform="translate(1028.97 980.4)"><tspan x="0" y="0">PIXE</tspan><tspan class="cls-4" x="381.19" y="0">L</tspan><tspan x="0" y="181.88">DUBBING</tspan></text>
  </g>
  <g>
    <g>
      <g>
        <path class="cls-1" d="m328.34,829.85v451.65h130.16v-126.25h130.16l130.16-130.16v-195.24h-390.48Zm260.32,195.24h-130.16v-65.08h130.16v65.08Z"/>
        <path class="cls-1" d="m827.26,666.5h-292.65l.42,145.94,145.91.39h146.32l-.36,283.14h-152.89l-77.83,79.22v76.45l377.42.18v-438.99l-146.34-146.33Z"/>
      </g>
      <g>
        <path class="cls-1" d="m328.34,829.85v451.65h130.16v-126.25h130.16l130.16-130.16v-195.24h-390.48Zm260.32,195.24h-130.16v-65.08h130.16v65.08Z"/>
        <path class="cls-1" d="m827.26,666.5h-292.65l.42,145.94,145.91.39h146.32l-.36,283.14h-152.89l-77.83,79.22v76.45l377.42.18v-438.99l-146.34-146.33Z"/>
      </g>
      <g>
        <path class="cls-1" d="m328.34,829.85v451.65h130.16v-126.25h130.16l130.16-130.16v-195.24h-390.48Zm260.32,195.24h-130.16v-65.08h130.16v65.08Z"/>
        <path class="cls-1" d="m827.26,666.5h-292.65l.42,145.94,145.91.39h146.32l-.36,283.14h-152.89l-77.83,79.22v76.45l377.42.18v-438.99l-146.34-146.33Z"/>
      </g>
    </g>
    <g>
      <rect class="cls-1" x="1546.97" y="902.5" width="14" height="37"/>
      <rect class="cls-1" x="1573.97" y="886.5" width="14" height="69"/>
      <rect class="cls-1" x="1600.97" y="870.5" width="14" height="101"/>
      <rect class="cls-1" x="1626.97" y="861.5" width="14" height="119"/>
      <rect class="cls-1" x="1652.97" y="870.5" width="14" height="101"/>
      <rect class="cls-1" x="1678.97" y="886.5" width="14" height="69"/>
      <rect class="cls-1" x="1704.97" y="902.5" width="14" height="37"/>
    </g>
    <text class="cls-2" transform="translate(1028.97 980.4)"><tspan x="0" y="0">PIXE</tspan><tspan class="cls-4" x="381.19" y="0">L</tspan><tspan x="0" y="181.88">DUBBING</tspan></text>
  </g>
</svg>